<?xml version="1.0" standalone="no"?>
<!DOCTYPE svg PUBLIC "-//W3C//DTD SVG 20010904//EN"
 "http://www.w3.org/TR/2001/REC-SVG-20010904/DTD/svg10.dtd">
<svg version="1.0" xmlns="http://www.w3.org/2000/svg"
 width="256.000000pt" height="256.000000pt" viewBox="0 0 256.000000 256.000000"
 preserveAspectRatio="xMidYMid meet">
<metadata>
Created by potrace 1.11, written by Peter Selinger 2001-2013
</metadata>
<g transform="translate(0.000000,256.000000) scale(0.100000,-0.100000)"
fill="#000000" stroke="none">
<path d="M1009 2466 c-2 -2 -33 -6 -69 -10 -72 -7 -101 -11 -175 -27 -27 -6
-60 -13 -73 -15 -106 -21 -305 -109 -361 -160 -70 -63 -74 -75 -72 -268 2
-232 5 -268 24 -297 10 -14 14 -29 10 -34 -5 -4 -3 -5 3 -2 7 4 27 -7 45 -24
19 -17 29 -28 22 -25 -7 4 -22 -8 -36 -29 -13 -19 -26 -33 -28 -30 -8 7 -10
-35 -12 -247 -1 -119 2 -208 7 -208 5 0 2 -8 -7 -18 -14 -15 -15 -19 -2 -19 8
0 11 5 8 11 -4 6 -2 7 3 3 5 -5 9 -14 9 -20 1 -7 7 -11 14 -9 7 1 10 -2 7 -7
-4 -5 -2 -12 4 -16 5 -3 10 -11 10 -17 0 -6 -10 -2 -23 10 -24 23 -38 20 -36
-7 0 -13 2 -12 8 2 6 16 9 16 31 -8 13 -14 18 -25 12 -25 -7 0 -12 -4 -12 -8
0 -5 6 -9 14 -9 8 0 13 8 11 18 -2 10 2 17 8 15 7 -1 9 -1 5 1 -5 3 -8 10 -8
16 0 16 23 -9 26 -27 1 -10 -4 -12 -14 -9 -10 4 -13 2 -8 -5 3 -6 -2 -15 -11
-21 -10 -6 -14 -11 -9 -11 4 0 1 -11 -8 -24 -13 -20 -15 -55 -15 -198 1 -95 0
-177 -1 -183 -1 -5 -1 -12 0 -15 1 -3 2 -19 3 -36 2 -24 -2 -30 -13 -27 -8 2
-5 -2 8 -8 12 -7 22 -17 21 -23 -3 -25 2 -37 12 -30 6 3 4 -5 -6 -19 -19 -29
-4 -47 22 -25 9 7 14 9 12 3 -6 -10 26 -47 33 -39 3 2 5 -3 5 -11 0 -8 -3 -12
-7 -10 -4 2 -7 -2 -7 -10 0 -8 4 -12 9 -9 21 13 65 10 64 -4 -1 -8 5 -17 13
-20 9 -3 11 0 6 8 -6 9 -4 11 5 5 10 -6 9 -11 -5 -21 -15 -12 -13 -12 17 -7
22 3 38 1 43 -6 5 -9 11 -9 23 1 10 7 14 9 10 4 -4 -4 3 -18 15 -31 22 -22 22
-22 33 -2 10 17 12 18 17 3 4 -10 3 -15 -3 -11 -6 3 -10 1 -10 -5 0 -7 7 -9
16 -6 9 3 17 6 20 6 2 0 1 7 -3 16 -4 11 3 8 19 -7 18 -18 22 -27 14 -38 -9
-12 -8 -13 4 -6 23 14 40 15 40 2 0 -8 3 -7 9 2 5 8 11 9 15 3 6 -10 60 -7 79
5 7 4 18 8 26 10 10 1 11 -1 2 -10 -21 -21 -11 -27 17 -10 25 17 26 17 13 0
-17 -21 -8 -22 23 -2 23 15 23 15 20 -11 -2 -20 0 -24 9 -15 15 15 40 14 31
-1 -6 -10 -4 -10 7 -1 16 16 33 17 23 1 -4 -7 -3 -8 4 -4 7 4 12 2 12 -5 0 -8
4 -8 15 1 8 7 15 9 15 4 0 -4 5 -3 12 4 17 17 31 15 25 -3 -4 -8 -2 -17 3 -20
4 -3 7 6 6 20 -2 14 3 30 11 37 11 9 13 8 11 -3 -2 -8 3 -13 10 -11 8 1 11 -2
7 -8 -3 -5 -2 -10 4 -10 6 0 8 -8 5 -18 -5 -16 -5 -16 6 1 6 9 9 21 6 25 -3 5
14 7 37 6 23 -1 48 3 56 9 12 9 13 9 7 0 -5 -9 -1 -13 13 -13 10 0 21 5 23 12
3 7 7 4 12 -7 4 -11 4 -16 1 -13 -4 4 -18 3 -30 -2 -16 -6 -25 -5 -28 3 -3 7
-5 3 -4 -9 1 -19 3 -20 25 -8 14 7 30 10 37 7 8 -2 16 5 20 18 4 12 10 18 14
13 8 -12 45 -18 38 -7 -3 5 5 9 19 9 13 0 24 -4 24 -8 0 -4 5 -8 11 -8 5 0 7
5 3 12 -4 7 -3 8 4 4 7 -4 12 -1 12 6 0 10 2 10 9 -1 5 -7 7 -21 6 -30 -1 -9
0 -10 2 -3 3 7 9 9 15 6 6 -4 8 -3 5 2 -3 5 8 17 24 26 16 10 29 13 29 8 0 -5
-9 -12 -21 -15 -20 -7 -20 -8 6 -21 34 -18 44 -18 21 -1 -17 12 -17 14 -2 20
9 4 16 2 16 -4 0 -6 4 -8 10 -4 5 3 6 13 3 22 -6 15 -5 16 9 3 12 -12 13 -18
4 -30 -9 -13 -9 -13 6 -2 11 9 18 10 23 2 10 -15 25 -2 18 16 -4 11 -8 12 -13
4 -5 -8 -9 -7 -13 3 -6 15 4 16 35 2 10 -4 15 -12 12 -17 -4 -6 4 -3 17 6 17
10 29 12 39 6 8 -5 20 -10 25 -9 6 0 -6 9 -25 20 -19 11 -26 17 -15 14 34 -11
40 -10 37 3 -1 8 2 11 8 7 6 -3 8 -10 6 -14 -7 -10 32 -7 41 4 5 4 3 5 -3 2
-7 -4 -18 1 -25 11 -11 14 -11 15 1 5 11 -10 16 -9 27 5 11 14 12 14 8 1 -3
-9 2 -22 12 -30 16 -13 17 -12 4 4 -15 20 -2 23 18 5 11 -11 12 -9 3 8 -9 16
-8 21 3 21 8 0 12 -4 9 -9 -3 -4 0 -8 6 -8 6 0 9 -4 6 -8 -3 -5 1 -9 9 -9 11
0 12 4 3 14 -6 7 -8 17 -4 20 4 4 12 1 17 -7 9 -13 10 -12 5 2 -3 10 0 20 6
24 7 4 8 3 4 -4 -4 -7 -1 -12 9 -12 9 0 14 4 11 9 -3 5 1 14 8 20 11 9 16 9
21 0 6 -8 10 -7 16 2 6 10 9 10 9 2 0 -19 -21 -27 -31 -12 -8 13 -13 5 -10
-14 1 -4 -6 -10 -14 -13 -8 -4 -15 -11 -15 -16 0 -7 5 -6 13 1 8 6 18 7 22 3
5 -4 5 -2 2 4 -4 7 3 14 18 18 14 4 25 11 25 17 0 6 6 7 13 3 6 -4 3 3 -8 16
l-20 23 25 -15 c28 -18 59 -16 71 4 7 10 9 10 9 -1 0 -8 3 -12 6 -8 3 3 3 11
-1 17 -5 8 -11 8 -21 -1 -8 -6 -14 -8 -14 -4 0 4 -6 2 -13 -4 -10 -8 -14 -7
-14 4 0 8 4 12 8 9 4 -2 10 0 14 6 4 6 10 8 15 5 4 -3 10 2 14 10 6 17 26 20
26 4 0 -5 -4 -7 -10 -4 -16 10 -11 -1 7 -16 9 -8 14 -9 10 -3 -8 14 16 37 28
26 5 -4 5 -1 1 6 -4 7 -2 19 4 27 9 11 9 19 2 28 -7 8 -7 17 2 30 14 18 32 24
21 7 -3 -5 -2 -10 2 -10 5 0 8 108 7 239 -1 255 -6 282 -53 326 -26 23 -10 51
19 35 26 -14 29 -13 27 9 0 11 -5 17 -9 15 -5 -3 -5 -10 -2 -16 4 -7 2 -8 -5
-4 -16 10 7 39 25 32 9 -3 11 0 7 11 -4 11 -2 14 5 9 8 -5 10 -2 6 8 -3 9 -2
16 3 16 11 0 10 382 -1 428 -11 46 -31 83 -41 74 -5 -4 -6 -2 -3 3 6 11 -16
36 -26 29 -3 -2 -3 -1 0 3 3 5 10 9 15 9 5 1 14 2 19 3 6 0 10 6 10 13 0 6 12
23 27 37 16 14 30 33 33 41 2 8 4 114 4 235 1 218 0 220 -24 256 -46 67 -115
111 -256 164 -65 24 -184 58 -249 69 -16 3 -43 9 -60 12 -16 3 -48 8 -70 11
-46 5 -561 14 -566 9z m1119 -2136 c-7 -10 -14 -17 -17 -15 -4 4 18 35 25 35
2 0 -1 -9 -8 -20z m-1508 -130 c0 -5 -2 -10 -4 -10 -3 0 -8 5 -11 10 -3 6 -1
10 4 10 6 0 11 -4 11 -10z m100 -15 c0 4 7 2 15 -5 11 -9 15 -9 15 -1 0 7 5 9
11 6 13 -9 7 -15 -19 -20 -12 -2 -28 5 -39 18 -16 19 -16 20 0 8 9 -7 17 -10
17 -6z m957 -27 c-3 -8 -6 -5 -6 6 -1 11 2 17 5 13 3 -3 4 -12 1 -19z m-867 4
c0 -4 -9 -8 -19 -8 -11 0 -17 4 -15 8 3 4 12 8 20 8 8 0 14 -4 14 -8z m187
-17 c0 -8 -4 -12 -9 -9 -5 3 -6 10 -3 15 9 13 12 11 12 -6z m33 -5 c0 -5 6 -7
14 -4 8 3 16 1 19 -3 9 -15 -31 -12 -44 3 -8 10 -8 14 0 14 6 0 11 -4 11 -10z"/>
<path d="M320 1624 c8 -10 15 -20 16 -22 1 -2 4 1 7 5 3 5 -4 15 -16 23 -21
12 -21 12 -7 -6z"/>
<path d="M301 1613 c7 -12 15 -20 18 -17 3 2 -3 12 -13 22 -17 16 -18 16 -5
-5z"/>
<path d="M2117 983 c-6 -10 3 -21 29 -36 7 -4 18 1 25 11 11 14 11 15 0 5 -11
-9 -17 -7 -31 9 -10 13 -19 17 -23 11z"/>
<path d="M275 971 c-3 -5 -2 -12 3 -15 5 -3 9 1 9 9 0 17 -3 19 -12 6z"/>
<path d="M305 412 c-19 -13 -3 -58 16 -46 6 4 6 11 -1 19 -7 8 -9 19 -5 25 7
12 4 13 -10 2z"/>
<path d="M2145 380 c-3 -5 1 -10 10 -10 9 0 13 5 10 10 -3 6 -8 10 -10 10 -2
0 -7 -4 -10 -10z"/>
<path d="M2155 329 c-4 -6 -5 -12 -2 -15 2 -3 7 2 10 11 7 17 1 20 -8 4z"/>
<path d="M339 318 c-11 -8 -11 -9 3 -5 9 3 22 -1 30 -10 11 -14 10 -15 -12
-10 -14 4 -19 4 -12 1 6 -3 10 -10 6 -15 -7 -12 19 -7 28 5 16 23 -18 52 -43
34z"/>
<path d="M415 260 c-6 -10 1 -14 19 -11 5 1 13 -4 17 -11 6 -9 9 -10 9 -1 0
17 -37 36 -45 23z"/>
<path d="M533 207 c0 -7 11 -13 23 -13 20 0 25 11 6 11 -4 0 -12 3 -18 7 -6 4
-11 1 -11 -5z"/>
<path d="M841 146 c-9 -11 -9 -16 1 -22 7 -4 10 -4 6 1 -4 4 -3 14 3 22 6 7 9
13 6 13 -2 0 -10 -6 -16 -14z"/>
<path d="M1120 120 c6 -11 13 -20 16 -20 2 0 0 9 -6 20 -6 11 -13 20 -16 20
-2 0 0 -9 6 -20z"/>
<path d="M1396 133 c-3 -3 -6 -11 -6 -17 0 -6 5 -4 10 4 8 12 10 12 11 -5 0
-11 3 -14 6 -7 2 6 9 10 14 6 5 -3 9 -3 9 0 0 9 -37 25 -44 19z"/>
<path d="M1455 129 c-4 -6 -5 -12 -2 -15 2 -3 7 2 10 11 7 17 1 20 -8 4z"/>
<path d="M1226 117 c3 -10 9 -15 12 -12 3 3 0 11 -7 18 -10 9 -11 8 -5 -6z"/>
<path d="M1340 120 c0 -5 9 -8 20 -7 21 1 18 10 -5 13 -8 1 -15 -2 -15 -6z"/>
<path d="M1190 110 c-9 -6 -10 -10 -3 -10 6 0 15 5 18 10 8 12 4 12 -15 0z"/>
<path d="M1510 109 c0 -5 5 -7 10 -4 6 3 10 8 10 11 0 2 -4 4 -10 4 -5 0 -10
-5 -10 -11z"/>
</g>
</svg>
